<?xml version="1.0" encoding="utf-8"?>
<!-- Generator: Adobe Illustrator 24.0.2, SVG Export Plug-In . SVG Version: 6.00 Build 0)  -->
<svg version="1.1" id="Layer_1" xmlns="http://www.w3.org/2000/svg" xmlns:xlink="http://www.w3.org/1999/xlink" x="0px" y="0px"
	 viewBox="0 0 640 640" style="enable-background:new 0 0 640 640;" xml:space="preserve">
<style type="text/css">
	.st0{fill:#909090;}
</style>
<path class="st0" d="M96,128c0-35.3,28.7-64,64-64h288c35.3,0,64,28.7,64,64v48h-64v-48H160v192h112v96H108.8
	C66.4,416,32,381.6,32,339.2c0-10.6,8.6-19.2,19.2-19.2H96V128z M561.9,321.9c9,9,14.1,21.2,14.1,33.9V528c0,26.5-21.5,48-48,48H368
	c-26.5,0-48-21.5-48-48V272c0-26.5,21.5-48,48-48h76.1c12.7,0,24.9,5.1,33.9,14.1c20,20,47.9,47.9,83.9,83.9V321.9z M448,336
	c0,8.8,7.2,16,16,16h60.1L448,275.9V336z"/>
</svg>
